# xmcd
#
# Track frame offsets:
#	150
#	4273
#	23194
#	40050
#	57348
#	69707
#	86052
#	99626
#	120056
#	134092
#	147387
#	161462
#	179476
#	192225
#	208263
#
# Disc length: 3004 seconds
#
# Revision: 0
# Processed by: cddbd v1.5.2PL0 Copyright (c) Steve Scherf et al.
# Submitted via: EasyCDDAExtractor 15.3.0.1
#
DISCID=d90bba0f
DTITLE=Chris de Burgh - A Better World
DYEAR=2016
DGENRE=Blues
TTITLE0=Hope In The Human Heart
TTITLE1=Bethlehem
TTITLE2=Once In A Lifetime
TTITLE3=The Open Door
TTITLE4=Heart And Soul
TTITLE5=Chain of Command
TTITLE6=Confession
TTITLE7=Homeland
TTITLE8=Cry No More
TTITLE9=Shipboard Romance
TTITLE10=Falling Rain
TTITLE11=All For Love
TTITLE12=Hold On (I'm On My Way)
TTITLE13=The Land of The Free
TTITLE14=The Soldier
EXTD=
EXTT0=
EXTT1=
EXTT2=
EXTT3=
EXTT4=
EXTT5=
EXTT6=
EXTT7=
EXTT8=
EXTT9=
EXTT10=
EXTT11=
EXTT12=
EXTT13=
EXTT14=
PLAYORDER=
